<svg width="22" height="22" viewBox="0 0 22 22" fill="none" xmlns="http://www.w3.org/2000/svg">
<path d="M16.1562 1.54688C14.2715 1.54688 12.6335 2.4096 11.4191 4.04173C11.2631 4.25146 11.1237 4.46127 11 4.66482C10.8763 4.46123 10.7369 4.25146 10.5809 4.04173C9.36659 2.4096 7.72849 1.54688 5.84375 1.54688C2.35323 1.54688 0 4.35071 0 7.78817C0 12.2744 4.26388 15.0988 10.4498 20.2539C10.6092 20.3867 10.8046 20.4531 11 20.4531C11.1954 20.4531 11.3908 20.3867 11.5502 20.2539C17.7347 15.1002 22 12.2749 22 7.78817C22 4.35273 19.6488 1.54688 16.1562 1.54688ZM11 18.4768C5.30398 13.7644 1.71875 11.2671 1.71875 7.78817C1.71875 5.54078 3.13569 3.26562 5.84375 3.26562C7.16714 3.26562 8.28704 3.85864 9.17237 5.02825C9.87379 5.95495 10.1653 6.91139 10.1747 6.94268C10.2812 7.3098 10.6176 7.5625 11 7.5625C11.383 7.5625 11.7198 7.30903 11.8258 6.94096C11.8364 6.90422 12.9218 3.26562 16.1562 3.26562C18.8643 3.26562 20.2812 5.54078 20.2812 7.78817C20.2812 11.2704 16.6779 13.7796 11 18.4768Z" fill="black"/>
</svg>
